Coordinates
version=1
nRows=14
nColumns=40
inDegrees=yes

Units are S.I. units (second, meters, Newtons, ...)
Angles are in degrees.

endheader
time	pelvis_tilt	pelvis_list	pelvis_rotation	pelvis_tx	pelvis_ty	pelvis_tz	hip_flexion_r	hip_adduction_r	hip_rotation_r	knee_angle_r	knee_angle_r_beta	ankle_angle_r	subtalar_angle_r	mtp_angle_r	hip_flexion_l	hip_adduction_l	hip_rotation_l	knee_angle_l	knee_angle_l_beta	ankle_angle_l	subtalar_angle_l	mtp_angle_l	lumbar_extension	lumbar_bending	lumbar_rotation	arm_flex_r	arm_add_r	arm_rot_r	elbow_flex_r	pro_sup_r	wrist_flex_r	wrist_dev_r	arm_flex_l	arm_add_l	arm_rot_l	elbow_flex_l	pro_sup_l	wrist_flex_l	wrist_dev_l
     24.93500000	     -4.56079585	     -2.67927566	     -3.54361116	      1.01571718	      0.92087700	      0.39057776	     29.72564869	     -3.98717843	    -15.41958572	     14.30369861	     14.30369861	      3.21850610	      6.76531307	     12.40575171	     -2.21135610	     -1.82426772	    -14.23688180	      9.94985149	      9.94985149	     17.14398130	     -1.92488085	     -7.18459336	    -12.13679958	      2.99442491	      1.44708814	    -22.27899952	    -13.20023046	     -3.21107857	     29.41396325	     46.49013704	      0.00000000	      0.00000000	     26.82885594	    -24.67149433	    -10.47172708	     98.77793799	     48.31419110	      0.00000000	      0.00000000
     24.94707143	     -4.61286660	     -2.51182500	     -3.34708810	      1.01634170	      0.91885011	      0.39218031	     29.43973403	     -3.82801605	    -15.66063708	     14.27229919	     14.27229919	      3.29892334	      6.68944147	     12.35304843	     -2.80545369	     -1.74536568	    -14.05212896	      9.92160905	      9.92160905	     17.60171464	     -1.81972124	     -7.36012866	    -11.72365198	      2.79706478	      1.09834815	    -23.13021321	    -13.17662668	     -3.26269580	     29.18075104	     46.49506470	      0.00000000	      0.00000000	     27.09808062	    -24.78758060	    -10.51679587	     99.05765902	     48.32564488	      0.00000000	      0.00000000
     24.95914286	     -4.43846152	     -2.45733708	     -3.18456504	      1.01720901	      0.91737567	      0.39404123	     28.89516942	     -3.61807976	    -15.96373503	     14.58635065	     14.58635065	      3.15509274	      6.87628580	     11.53238807	     -3.80830197	     -1.77919811	    -14.09211803	      9.63231144	      9.63231144	     18.01078864	     -1.27989840	     -7.35884640	    -11.73108561	      2.66164267	      1.35606616	    -24.12988213	    -12.93358362	     -3.54391778	     29.34745612	     46.49225656	      0.00000000	      0.00000000	     27.45238731	    -24.55428708	    -10.19865822	    100.54330564	     48.34656835	      0.00000000	      0.00000000
     24.97121429	     -4.42789494	     -2.42490579	     -2.94971130	      1.01797547	      0.91573663	      0.39615350	     28.40650334	     -3.31911044	    -15.82921453	     14.77345477	     14.77345477	      1.59206388	      6.34561617	      6.90380382	     -4.24620231	     -2.03432912	    -14.38916359	     10.13845939	     10.13845939	     18.96958292	     -0.29337402	     -6.75404182	    -11.52656393	      2.57099480	      1.24688437	    -25.10929612	    -12.67196999	     -5.03613218	     30.72313256	     46.49429950	      0.00000000	      0.00000000	     27.33344639	    -24.71358356	     -9.80626168	    101.45889977	     48.38829285	      0.00000000	      0.00000000
     24.98328571	     -4.47310284	     -2.44652683	     -2.71809162	      1.01859155	      0.91439597	      0.39837860	     28.24827065	     -3.08983173	    -15.55124743	     15.69566094	     15.69566094	      1.37763179	      5.80357784	      5.94612251	     -4.65577115	     -2.29236783	    -14.23158649	     10.48283485	     10.48283485	     19.40634658	     -0.17987174	     -6.68029786	    -11.27389714	      2.53484802	      1.30440735	    -25.26125951	    -12.44395239	     -5.13407743	     30.43405062	     46.50239582	      0.00000000	      0.00000000	     27.35942580	    -24.31146678	     -9.77996851	    101.75747004	     48.40464121	      0.00000000	      0.00000000
     24.99535714	     -4.42397982	     -2.62643306	     -2.47510255	      1.01928185	      0.91361026	      0.40075350	     27.88087661	     -2.73266570	    -15.38033081	     16.52744346	     16.52744346	      1.32811227	      5.46420761	      5.49329125	     -5.16822047	     -2.73622825	    -14.04344546	     10.82966257	     10.82966257	     19.68722228	     -0.18567825	     -6.68796575	    -11.15461116	      2.70824627	      1.28975877	    -25.13580293	    -12.31054054	     -5.14836597	     30.40067615	     46.50337960	      0.00000000	      0.00000000	     27.06434248	    -24.02078839	     -9.65807939	    101.85532765	     48.40022356	      0.00000000	      0.00000000
     25.00742857	     -4.49401839	     -2.81911604	     -2.23126824	      1.01977950	      0.91280498	      0.40355626	     27.63168583	     -2.19668372	    -14.42673540	     17.15782065	     17.15782065	      0.17668761	      3.63369101	      1.86318144	     -5.08956350	     -3.46930330	    -14.60005964	     12.16397173	     12.16397173	     20.84808376	      1.00237816	     -5.60813998	    -10.99203864	      2.79507944	      1.09874354	    -24.36155166	    -12.08698967	     -5.53452680	     29.62492437	     46.54190294	      0.00000000	      0.00000000	     26.33678411	    -23.85825374	     -9.93804495	    102.61488567	     48.46494020	      0.00000000	      0.00000000
     25.01950000	     -4.49877411	     -3.00706764	     -1.98377537	      1.02031769	      0.91260365	      0.40613189	     27.43171553	     -1.90899192	    -14.16907031	     18.16363810	     18.16363810	      0.40541037	      3.16684505	      1.33212115	     -5.33885863	     -3.99529648	    -14.37931070	     12.84525112	     12.84525112	     21.00908656	      0.84825392	     -5.54559319	    -10.90200822	      2.95638665	      1.17534883	    -23.85577929	    -11.97652977	     -5.54252952	     29.63335334	     46.54239941	      0.00000000	      0.00000000	     25.78315567	    -23.36030067	     -9.79325566	    102.55387902	     48.45622738	      0.00000000	      0.00000000
     25.03157143	     -4.47693323	     -3.23044307	     -1.73181453	      1.02084799	      0.91299814	      0.40885722	     27.03493770	     -1.56659197	    -14.00108086	     18.81205930	     18.81205930	      0.73296332	      2.77689094	      1.01982704	     -5.61321377	     -4.57294673	    -14.19392624	     13.48735713	     13.48735713	     20.94004183	      0.70964921	     -5.50716398	    -10.89836144	      3.11711238	      1.32847781	    -23.00582795	    -11.76890059	     -5.51572202	     29.82572188	     46.53802155	      0.00000000	      0.00000000	     25.01460127	    -22.76498352	     -9.53308496	    102.36246185	     48.43324871	      0.00000000	      0.00000000
     25.04364286	     -4.69561272	     -3.59696442	     -1.41729999	      1.02093561	      0.91316428	      0.41191363	     26.92109617	     -0.93319646	    -13.27272073	     19.32538700	     19.32538700	      0.65175745	      0.91835362	     -0.26262175	     -4.86259008	     -5.67577041	    -14.52596252	     15.66687692	     15.66687692	     21.81776488	      1.43075680	     -4.48474821	    -10.66451259	      3.42251616	      0.90372228	    -21.17554923	    -11.69650866	     -5.96422164	     28.14821607	     46.62160790	      0.00000000	      0.00000000	     23.62507897	    -22.42503584	    -10.29402266	    102.48539305	     48.52092015	      0.00000000	      0.00000000
     25.05571429	     -4.78444126	     -3.91698398	     -1.11357475	      1.02113355	      0.91400503	      0.41482433	     26.55778267	     -0.47378091	    -13.11724310	     19.68492201	     19.68492201	      1.13160857	      0.22073758	     -0.39109154	     -4.46970437	     -6.51885398	    -14.15414002	     17.24056765	     17.24056765	     21.58388033	      0.87299674	     -4.70980077	    -10.61494563	      3.71609200	      0.99897337	    -20.10564173	    -11.65944955	     -6.04369052	     28.36168079	     46.62266841	      0.00000000	      0.00000000	     22.56543742	    -21.86014643	    -10.07859290	    101.85781139	     48.49453079	      0.00000000	      0.00000000
     25.06778571	     -4.91021806	     -4.25147747	     -0.78858025	      1.02121037	      0.91507090	      0.41782254	     26.12535333	      0.03126052	    -12.98831471	     19.78847890	     19.78847890	      1.61412890	     -0.50454289	     -0.39539988	     -3.77977320	     -7.46330087	    -13.79423760	     19.24175299	     19.24175299	     21.16006106	      0.26563502	     -5.16969993	    -10.52338998	      4.00158274	      0.97097721	    -18.82906491	    -11.65118142	     -6.20184588	     28.53275862	     46.63251429	      0.00000000	      0.00000000	     21.33143311	    -21.24764636	     -9.93789237	    100.98133217	     48.46762688	      0.00000000	      0.00000000
     25.07985714	     -4.98149669	     -4.58618420	     -0.46094166	      1.02129189	      0.91638627	      0.42083610	     25.53176203	      0.53246377	    -13.04687207	     19.68989111	     19.68989111	      2.16556195	     -0.98358619	     -0.41419712	     -2.98205758	     -8.41985652	    -13.27760200	     21.48980048	     21.48980048	     20.55548882	     -0.54976731	     -5.79705762	    -10.50263427	      4.29091370	      1.02413981	    -17.44506420	    -11.70473273	     -6.39772083	     28.81798042	     46.64225045	      0.00000000	      0.00000000	     20.00747204	    -20.64428452	     -9.76756241	     99.96872271	     48.43416105	      0.00000000	      0.00000000
     25.09192857	     -5.12253490	     -4.90110854	     -0.10410646	      1.02122422	      0.91771086	      0.42387045	     24.91504586	      1.03232968	    -13.17712811	     19.36731300	     19.36731300	      2.63585848	     -1.36315326	     -0.38758224	     -1.79348579	     -9.40015482	    -12.58890077	     24.21035512	     24.21035512	     19.56268554	     -1.69290772	     -6.75201865	    -10.40711416	      4.54146213	      0.95905887	    -15.97342001	    -11.77469122	     -6.69643026	     29.22822052	     46.65385464	      0.00000000	      0.00000000	     18.58122124	    -20.04710979	     -9.62400154	     98.63066182	     48.39566648	      0.00000000	      0.00000000
